<svg width="22" height="22" viewBox="0 0 22 22" fill="none" xmlns="http://www.w3.org/2000/svg">
<g id="swm icon pack / eyeclosed">
<g id="Group">
<path id="Vector" d="M18.3327 13.5974C19.5319 12.2207 20.166 11 20.166 11C20.166 11 16.8326 4.58331 10.9993 4.58331C10.6866 4.58331 10.381 4.60177 10.0827 4.63668C9.769 4.6734 9.46338 4.72835 9.16602 4.79921" stroke="#29262A" stroke-width="1.5" stroke-linecap="round" stroke-linejoin="round"/>
<path id="Vector_2" d="M11 8.25C11.3214 8.25 11.6299 8.30514 11.9167 8.40648C12.698 8.68266 13.3173 9.30197 13.5935 10.0833C13.6948 10.3701 13.75 10.6786 13.75 11" stroke="#29262A" stroke-width="1.5" stroke-linecap="round" stroke-linejoin="round"/>
<path id="Vector_3" d="M2.75 2.75L19.25 19.25" stroke="#29262A" stroke-width="1.5" stroke-linecap="round" stroke-linejoin="round"/>
<path id="Vector_4" d="M11.0001 13.75C10.6787 13.75 10.3701 13.6948 10.0834 13.5935C9.30204 13.3173 8.68272 12.698 8.40655 11.9166C8.35444 11.7692 8.31455 11.6161 8.28809 11.4583" stroke="#29262A" stroke-width="1.5" stroke-linecap="round" stroke-linejoin="round"/>
<path id="Vector_5" d="M3.8011 8.25C3.51855 8.5658 3.26515 8.87554 3.04176 9.16667C2.24813 10.2008 1.83301 11 1.83301 11C1.83301 11 5.16634 17.4167 10.9997 17.4167C11.3124 17.4167 11.6181 17.3982 11.9163 17.3633" stroke="#29262A" stroke-width="1.5" stroke-linecap="round" stroke-linejoin="round"/>
</g>
</g>
</svg>
