<svg width="299" height="90" viewBox="0 0 299 90" fill="none" xmlns="http://www.w3.org/2000/svg">
<path d="M77.0586 88H59.3966C58.9035 88 58.5 87.5936 58.5 87.097V48.2209C58.5 47.363 57.469 46.9566 56.8862 47.6339L39.6724 67.546C39.3138 67.9524 38.6414 67.9524 38.2828 67.546L21.069 47.6339C20.531 47.0018 19.4552 47.4081 19.4552 48.2209V87.097C19.4552 87.5936 19.0517 88 18.5586 88H0.896552C0.403448 88 0 87.5936 0 87.097V1.93986C0 1.08196 1.03103 0.675596 1.56897 1.30773L38.3276 41.132C38.6862 41.5384 39.3138 41.5384 39.6724 41.132L76.431 1.30773C77.0138 0.675596 78 1.08196 78 1.93986V87.097C78 87.5936 77.5965 88 77.0586 88Z" fill="#DB3746"/>
<path d="M92 79.5C92 73.6569 96.6569 69 102.5 69C108.343 69 113 73.6569 113 79.5C113 85.3431 108.343 90 102.5 90C96.6569 90 92 85.3431 92 79.5Z" fill="#DB3746"/>
<path d="M184 61.4097C184 76.559 171.887 90 153.378 90C136.956 90 126.023 78.9864 123.165 74.9406C122.938 74.626 122.938 74.1764 123.21 73.8618L133.055 61.5895C133.417 61.1399 134.143 61.1399 134.506 61.5895C140.449 68.9169 146.755 72.4232 153.424 72.4232C160.455 72.4232 164.266 67.1637 164.266 62.6234C164.266 56.7345 161.181 53.8125 154.376 51.2502C136.593 44.5072 127.701 37.944 127.701 23.7388C127.701 9.30874 139.905 0.00339912 155.601 0.00339912C158.278 0.00339912 168.394 -0.446135 179.146 8.99407C179.509 9.30874 179.554 9.84819 179.282 10.2078L169.801 23.1094C169.483 23.559 168.848 23.6039 168.44 23.2443C165.763 20.7269 160.954 17.6251 155.374 17.6251C150.566 17.6251 147.481 20.6819 147.481 23.3791C147.481 26.6607 149.205 29.1332 155.374 31.4707C170.164 37.0899 184 41.855 184 61.4097Z" fill="#DB3746"/>
<path d="M194 79.5C194 73.6569 198.657 69 204.5 69C210.343 69 215 73.6569 215 79.5C215 85.3431 210.343 90 204.5 90C198.657 90 194 85.3431 194 79.5Z" fill="#DB3746"/>
<path d="M290.087 66.8931L298.846 80.2448C299.115 80.6493 299.026 81.1888 298.621 81.4585C291.3 86.988 280.699 90 272.03 90C246.112 90 225 69.8152 225 45C225 20.1848 246.157 0 272.03 0C280.699 0 291.3 3.01199 298.621 8.54146C299.026 8.81119 299.071 9.35065 298.846 9.75525L290.087 23.1069C289.817 23.5564 289.188 23.6464 288.784 23.3317C284.382 19.8701 278.678 17.5774 272.209 17.5774C257.072 17.5774 244.584 29.6703 244.584 44.955C244.584 60.2398 257.027 72.3327 272.209 72.3327C278.678 72.3327 284.382 70.04 288.784 66.5784C289.188 66.3536 289.817 66.4436 290.087 66.8931Z" fill="#DB3746"/>
</svg>
